<?xml version="1.0" encoding="UTF-8" standalone="no"?>
<!-- Created with Inkscape (http://www.inkscape.org/) -->

<svg
   width="51mm"
   height="3.9996989mm"
   viewBox="0 0 51 3.9996989"
   version="1.1"
   id="svg5"
   xmlns="http://www.w3.org/2000/svg"
   xmlns:svg="http://www.w3.org/2000/svg">
  <defs
     id="defs2" />
  <g
     id="layer1"
     transform="translate(-84.5,-149.5)" />
  <g
     id="g151"
     style="stroke:#ffffff;stroke-opacity:1"
     transform="translate(-84.5,-149.5)">
    <path
       style="fill:none;fill-opacity:1;stroke:#ffffff;stroke-width:1;stroke-linecap:round;stroke-linejoin:round;stroke-dasharray:none;stroke-opacity:1"
       d="M 98,150 H 85"
       id="path139" />
    <path
       style="fill:none;fill-opacity:1;stroke:#ffffff;stroke-width:1;stroke-linecap:round;stroke-linejoin:round;stroke-dasharray:none;stroke-opacity:1"
       d="m 122,150 h 13"
       id="path141" />
    <path
       style="fill:none;fill-opacity:1;stroke:#ffffff;stroke-width:1;stroke-linecap:round;stroke-linejoin:round;stroke-dasharray:none;stroke-opacity:1"
       d="m 104,150 a 3,3 0 0 1 -1.5,2.59808 3,3 0 0 1 -3,0 A 3,3 0 0 1 98,150"
       id="path143" />
    <path
       style="fill:none;fill-opacity:1;stroke:#ffffff;stroke-width:1;stroke-linecap:round;stroke-linejoin:round;stroke-dasharray:none;stroke-opacity:1"
       d="m 110,150 a 3,3 0 0 1 -1.5,2.59808 3,3 0 0 1 -3,0 A 3,3 0 0 1 104,150"
       id="path145" />
    <path
       style="fill:none;fill-opacity:1;stroke:#ffffff;stroke-width:1;stroke-linecap:round;stroke-linejoin:round;stroke-dasharray:none;stroke-opacity:1"
       d="m 116,150 a 3,3 0 0 1 -1.5,2.59808 3,3 0 0 1 -3,0 A 3,3 0 0 1 110,150"
       id="path147" />
    <path
       style="fill:none;fill-opacity:1;stroke:#ffffff;stroke-width:1;stroke-linecap:round;stroke-linejoin:round;stroke-dasharray:none;stroke-opacity:1"
       d="m 122,150 a 3,3 0 0 1 -1.5,2.59808 3,3 0 0 1 -3,0 A 3,3 0 0 1 116,150"
       id="path149" />
  </g>
  <g
     id="g164"
     transform="matrix(0.552997,0,0,0.552997,-195.69866,-315.18446)" />
</svg>
