<?xml version="1.0" encoding="UTF-8" standalone="no"?>
<!-- Created with Inkscape (http://www.inkscape.org/) -->

<svg
   width="102.86378mm"
   height="68.629715mm"
   viewBox="0 0 102.86378 68.629715"
   version="1.1"
   id="svg5"
   xmlns:xlink="http://www.w3.org/1999/xlink"
   xmlns="http://www.w3.org/2000/svg"
   xmlns:svg="http://www.w3.org/2000/svg"
   xmlns:ns1="http://www.iki.fi/pav/software/textext/">
  <defs
     id="defs2">
    <marker
       style="overflow:visible"
       id="TriangleStart"
       refX="0"
       refY="0"
       orient="auto-start-reverse"
       markerWidth="5.3244081"
       markerHeight="6.155385"
       viewBox="0 0 5.3244081 6.1553851"
       preserveAspectRatio="xMidYMid">
      <path
         transform="scale(0.5)"
         style="fill:context-stroke;fill-rule:evenodd;stroke:context-stroke;stroke-width:1pt"
         d="M 5.77,0 -2.88,5 V -5 Z"
         id="path135" />
    </marker>
    <linearGradient
       id="linearGradient37914">
      <stop
         style="stop-color:#b236b1;stop-opacity:1;"
         offset="0"
         id="stop37910" />
      <stop
         style="stop-color:#ffffff;stop-opacity:1;"
         offset="0.69942343"
         id="stop37912" />
    </linearGradient>
    <linearGradient
       id="linearGradient15029">
      <stop
         style="stop-color:#b236b1;stop-opacity:1;"
         offset="0"
         id="stop15025" />
      <stop
         style="stop-color:#5236b2;stop-opacity:1;"
         offset="1"
         id="stop15027" />
    </linearGradient>
    <linearGradient
       xlink:href="#linearGradient15029"
       id="linearGradient15031"
       x1="-0.00050000002"
       y1="3.515125"
       x2="7.0932498"
       y2="3.515125"
       gradientUnits="userSpaceOnUse" />
    <linearGradient
       xlink:href="#linearGradient37914"
       id="linearGradient22541"
       x1="-0.48999602"
       y1="61.39262"
       x2="5.9451728"
       y2="61.39262"
       gradientUnits="userSpaceOnUse" />
  </defs>
  <g
     id="layer1"
     transform="translate(-30.446637,-98.460034)">
    <path
       style="fill:none;fill-rule:evenodd;stroke:#ffffff;stroke-width:0.794127;stroke-linecap:round;stroke-linejoin:bevel;stroke-opacity:1"
       d="m 116.81664,103.67498 c 0,0 -15.08995,30.14823 -24.308062,33.01143 -9.21811,2.8632 -11.18672,4.53664 -18.74704,7.88217 -7.56032,3.34553 -11.081523,1.52642 -15.511853,8.27856 -4.85653,7.40168 -24.796541,11.23612 -24.796541,11.23612"
       id="path456" />
    <g
       transform="matrix(0.43113542,0,0,0.42660763,123.82267,128.60597)"
       ns1:version="1.8.2"
       ns1:texconverter="pdflatex"
       ns1:pdfconverter="inkscape"
       ns1:text="I"
       ns1:preamble="/home/brage/.config/inkscape/extensions/circuitSymbols/circuitSymbolsPreamble.tex"
       ns1:scale="1.0"
       ns1:alignment="middle center"
       ns1:stroke-to-path="0"
       ns1:jacobian_sqrt="0.352778"
       id="g5590"
       style="fill:#ffffff;fill-opacity:1;fill-rule:nonzero">
      <defs
         id="id-b7d8924a-6ccc-478c-b183-06dd352eab41"
         style="fill:url(#linearGradient22541);fill-opacity:1" />
      <g
         fill="#000000"
         fill-opacity="1"
         id="id-b4736f62-8d98-4c93-bb8b-ca9e13bca6c2"
         transform="translate(-148.993,-127.953)"
         style="fill:#ffffff;fill-opacity:1;fill-rule:nonzero">
        <g
           transform="translate(148.712,134.765)"
           id="g5587"
           style="fill:#ffffff;fill-opacity:1;fill-rule:nonzero">
          <path
             d="m 3.9705466,49.007897 c 0,-0.762933 0.033171,-0.99513 1.7248906,-0.99513 h 0.5307355 v -0.663419 c -0.7297614,0.06634 -2.38831,0.06634 -3.2175843,0.06634 -0.7961034,0 -2.48782303,0 -3.21758443,-0.06634 v 0.663419 h 0.53073556 c 1.69171957,0 1.75806157,0.232197 1.75806157,0.99513 v 11.145446 c 0,0.762933 -0.066342,0.99513 -1.75806157,0.99513 h -0.53073556 v 0.663419 c 0.7297614,-0.06634 2.42148103,-0.06634 3.21758443,-0.06634 0.8292743,0 2.4878229,0 3.2175843,0.06634 V 61.148473 H 5.6954372 c -1.6917196,0 -1.7248906,-0.232197 -1.7248906,-0.99513 z"
             id="id-d5657527-27a3-41f1-b7e6-a7edcd0a93dd"
             style="fill:#ffffff;fill-opacity:1;fill-rule:nonzero;stroke-width:2.12294" />
        </g>
      </g>
    </g>
    <g
       transform="matrix(0.85454987,0,0,0.84557539,38.614377,99.823957)"
       ns1:version="1.8.2"
       ns1:texconverter="pdflatex"
       ns1:pdfconverter="inkscape"
       ns1:text="V"
       ns1:preamble="/home/brage/.config/inkscape/extensions/circuitSymbols/circuitSymbolsPreamble.tex"
       ns1:scale="1.0"
       ns1:alignment="middle center"
       ns1:stroke-to-path="0"
       ns1:jacobian_sqrt="0.352778"
       id="g5660"
       style="fill:#ffffff;fill-opacity:1">
      <defs
         id="id-13876b8f-e0de-4f10-bdd1-8723542328f3"
         style="fill:url(#linearGradient15031);fill-opacity:1" />
      <g
         fill="#000000"
         fill-opacity="1"
         id="id-00fa8794-e3de-4b5f-b678-adca7967748f"
         transform="translate(-148.9,-127.953)"
         style="fill:#ffffff;fill-opacity:1">
        <g
           transform="translate(148.712,134.765)"
           id="g5657"
           style="fill:#ffffff;fill-opacity:1">
          <path
             d="M 6.1875,-5.828125 C 6.328125,-6.203125 6.59375,-6.484375 7.28125,-6.5 v -0.3125 c -0.3125,0.03125 -0.71875,0.03125 -0.96875,0.03125 -0.296875,0 -0.875,-0.015625 -1.140625,-0.03125 V -6.5 C 5.6875,-6.484375 5.90625,-6.234375 5.90625,-6 c 0,0.078125 -0.03125,0.140625 -0.046875,0.203125 L 4.03125,-1 2.125,-6.03125 C 2.0625,-6.171875 2.0625,-6.1875 2.0625,-6.203125 2.0625,-6.5 2.625,-6.5 2.875,-6.5 v -0.3125 c -0.359375,0.03125 -1.046875,0.03125 -1.421875,0.03125 -0.46875,0 -0.90625,-0.015625 -1.265625,-0.03125 V -6.5 c 0.65625,0 0.84375,0 0.984375,0.375 L 3.484375,0 c 0.0625,0.1875 0.109375,0.21875 0.25,0.21875 0.15625,0 0.1875,-0.046875 0.234375,-0.1875 z m 0,0"
             id="id-cfe6d5b1-911a-458e-9a8e-91faae1192f0"
             style="fill:#ffffff;fill-opacity:1" />
        </g>
      </g>
    </g>
    <path
       style="fill:#ffffff;fill-opacity:1;fill-rule:nonzero;stroke:#fbfbfb;stroke-width:0.799999;stroke-linecap:square;stroke-linejoin:round;stroke-dasharray:none;stroke-dashoffset:361.372;stroke-opacity:1;marker-end:url(#TriangleStart);paint-order:normal"
       d="M 33.453144,164.08326 V 105.25518"
       id="path44160" />
    <path
       style="fill:#ffffff;fill-opacity:1;fill-rule:nonzero;stroke:#fbfbfb;stroke-width:0.799999;stroke-linecap:square;stroke-linejoin:round;stroke-dasharray:none;stroke-dashoffset:361.372;stroke-opacity:1;marker-end:url(#TriangleStart);paint-order:normal"
       d="M 33.453144,164.08326 H 126.51527"
       id="path44162" />
    <path
       style="fill:#ffffff;fill-opacity:1;fill-rule:nonzero;stroke:#fbfbfb;stroke-width:0.607101;stroke-linecap:square;stroke-linejoin:round;stroke-dasharray:none;stroke-dashoffset:361.372;stroke-opacity:1;paint-order:normal"
       d="m 36.156114,105.25518 h -5.40594 l 2.590223,-6.49164 z"
       id="path44679-6" />
    <path
       style="fill:#ffffff;fill-opacity:1;fill-rule:nonzero;stroke:#fbfbfb;stroke-width:0.607101;stroke-linecap:square;stroke-linejoin:round;stroke-dasharray:none;stroke-dashoffset:361.372;stroke-opacity:1;paint-order:normal"
       d="m 126.51527,166.78622 v -5.40593 l 6.49164,2.59022 z"
       id="path44679-3" />
    <g
       transform="matrix(0.62051625,0,0,0.62051625,101.13555,103.27815)"
       ns1:version="1.8.2"
       ns1:texconverter="pdflatex"
       ns1:pdfconverter="inkscape"
       ns1:text="V(I)"
       ns1:preamble="/home/brage/.config/inkscape/extensions/circuitSymbols/circuitSymbolsPreamble.tex"
       ns1:scale="1.0"
       ns1:alignment="middle center"
       ns1:stroke-to-path="0"
       ns1:jacobian_sqrt="0.352778"
       id="g45307"
       style="fill:#ffffff;fill-opacity:1">
      <defs
         id="id-57346ded-437f-437b-bbcf-6e5968a5a6a6" />
      <g
         fill="#000000"
         fill-opacity="1"
         id="id-8503e7d4-8001-44de-9930-99f502bd1ec3"
         transform="translate(-148.9,-127.281)"
         style="fill:#ffffff;fill-opacity:1">
        <g
           transform="translate(148.712,134.765)"
           id="g45295"
           style="fill:#ffffff;fill-opacity:1">
          <path
             d="M 6.1875,-5.828125 C 6.328125,-6.203125 6.59375,-6.484375 7.28125,-6.5 v -0.3125 c -0.3125,0.03125 -0.71875,0.03125 -0.96875,0.03125 -0.296875,0 -0.875,-0.015625 -1.140625,-0.03125 V -6.5 C 5.6875,-6.484375 5.90625,-6.234375 5.90625,-6 c 0,0.078125 -0.03125,0.140625 -0.046875,0.203125 L 4.03125,-1 2.125,-6.03125 C 2.0625,-6.171875 2.0625,-6.1875 2.0625,-6.203125 2.0625,-6.5 2.625,-6.5 2.875,-6.5 v -0.3125 c -0.359375,0.03125 -1.046875,0.03125 -1.421875,0.03125 -0.46875,0 -0.90625,-0.015625 -1.265625,-0.03125 V -6.5 c 0.65625,0 0.84375,0 0.984375,0.375 L 3.484375,0 c 0.0625,0.1875 0.109375,0.21875 0.25,0.21875 0.15625,0 0.1875,-0.046875 0.234375,-0.1875 z m 0,0"
             id="id-12aaf0df-18a0-484c-98d4-1385511bfa0e"
             style="fill:#ffffff;fill-opacity:1" />
        </g>
        <g
           transform="translate(156.184,134.765)"
           id="g45298"
           style="fill:#ffffff;fill-opacity:1">
          <path
             d="m 3.296875,2.390625 c 0,-0.03125 0,-0.046875 -0.171875,-0.21875 C 1.890625,0.921875 1.5625,-0.96875 1.5625,-2.5 c 0,-1.734375 0.375,-3.46875 1.609375,-4.703125 0.125,-0.125 0.125,-0.140625 0.125,-0.171875 0,-0.078125 -0.03125,-0.109375 -0.09375,-0.109375 -0.109375,0 -1,0.6875 -1.59375,1.953125 -0.5,1.09375 -0.625,2.203125 -0.625,3.03125 0,0.78125 0.109375,1.984375 0.65625,3.125 C 2.25,1.84375 3.09375,2.5 3.203125,2.5 c 0.0625,0 0.09375,-0.03125 0.09375,-0.109375 z m 0,0"
             id="id-17e3dc35-36cb-442b-8a45-a4e09ad5d01f"
             style="fill:#ffffff;fill-opacity:1" />
        </g>
        <g
           transform="translate(160.058,134.765)"
           id="g45301"
           style="fill:#ffffff;fill-opacity:1">
          <path
             d="M 2.25,-6.03125 C 2.25,-6.390625 2.265625,-6.5 3.0625,-6.5 h 0.25 v -0.3125 c -0.34375,0.03125 -1.125,0.03125 -1.515625,0.03125 -0.375,0 -1.171875,0 -1.515625,-0.03125 V -6.5 h 0.25 c 0.796875,0 0.828125,0.109375 0.828125,0.46875 v 5.25 c 0,0.359375 -0.03125,0.46875 -0.828125,0.46875 h -0.25 V 0 c 0.34375,-0.03125 1.140625,-0.03125 1.515625,-0.03125 0.390625,0 1.171875,0 1.515625,0.03125 v -0.3125 h -0.25 C 2.265625,-0.3125 2.25,-0.421875 2.25,-0.78125 Z m 0,0"
             id="id-2825d3ac-9ce2-4114-812f-28651e25c52a"
             style="fill:#ffffff;fill-opacity:1" />
        </g>
        <g
           transform="translate(163.656,134.765)"
           id="g45304"
           style="fill:#ffffff;fill-opacity:1">
          <path
             d="m 2.875,-2.5 c 0,-0.765625 -0.109375,-1.96875 -0.65625,-3.109375 -0.59375,-1.21875 -1.453125,-1.875 -1.546875,-1.875 -0.0625,0 -0.109375,0.046875 -0.109375,0.109375 0,0.03125 0,0.046875 0.1875,0.234375 0.984375,0.984375 1.546875,2.5625 1.546875,4.640625 0,1.71875 -0.359375,3.46875 -1.59375,4.71875 C 0.5625,2.34375 0.5625,2.359375 0.5625,2.390625 0.5625,2.453125 0.609375,2.5 0.671875,2.5 0.765625,2.5 1.671875,1.8125 2.25,0.546875 2.765625,-0.546875 2.875,-1.65625 2.875,-2.5 Z m 0,0"
             id="id-647010eb-c15b-46f3-aa61-d2722d33fd81"
             style="fill:#ffffff;fill-opacity:1" />
        </g>
      </g>
    </g>
  </g>
</svg>
