<?xml version="1.0" encoding="UTF-8" standalone="no"?>
<!-- Created with Inkscape (http://www.inkscape.org/) -->

<svg
   width="65.032211mm"
   height="76.302483mm"
   viewBox="0 0 65.032211 76.302483"
   version="1.1"
   id="svg5"
   xmlns="http://www.w3.org/2000/svg"
   xmlns:svg="http://www.w3.org/2000/svg"
   xmlns:ns1="http://www.iki.fi/pav/software/textext/">
  <defs
     id="defs2" />
  <g
     id="g243"
     transform="rotate(-90,5.1423188,140.3747)"
     style="stroke:#ffffff;stroke-width:0.529167;stroke-dasharray:none;stroke-opacity:1">
    <path
       style="fill:none;fill-opacity:1;stroke:#ffffff;stroke-width:0.529167;stroke-linecap:round;stroke-linejoin:round;stroke-dasharray:none;stroke-opacity:1"
       d="M 103,150 H 85"
       id="path231" />
    <path
       style="fill:none;fill-opacity:1;stroke:#ffffff;stroke-width:0.529167;stroke-linecap:round;stroke-linejoin:round;stroke-dasharray:none;stroke-opacity:1"
       d="m 117,150 h 18"
       id="path233" />
    <circle
       style="fill:none;fill-opacity:1;stroke:#ffffff;stroke-width:0.529167;stroke-linecap:round;stroke-linejoin:round;stroke-dasharray:none;stroke-opacity:1"
       id="path235"
       cx="110"
       cy="150"
       r="7" />
    <path
       style="fill:none;fill-opacity:1;stroke:#ffffff;stroke-width:0.529167;stroke-linecap:round;stroke-linejoin:round;stroke-dasharray:none;stroke-opacity:1"
       d="m 113,150 h 2"
       id="path237" />
    <path
       style="fill:none;fill-opacity:1;stroke:#ffffff;stroke-width:0.529167;stroke-linecap:round;stroke-linejoin:round;stroke-dasharray:none;stroke-opacity:1"
       d="m 114,149 v 2"
       id="path239" />
    <path
       style="fill:none;fill-opacity:1;stroke:#ffffff;stroke-width:0.529167;stroke-linecap:round;stroke-linejoin:round;stroke-dasharray:none;stroke-opacity:1"
       d="m 106,149 v 2"
       id="path241" />
  </g>
  <g
     id="g256"
     transform="matrix(0.6400016,0,0,0.6400016,-197.58268,-339.48634)">
    <g
       transform="matrix(1.33333,0,0,1.33333,384.65375,652.30054)"
       ns1:version="1.8.2"
       ns1:texconverter="pdflatex"
       ns1:pdfconverter="inkscape"
       ns1:text=" $V$"
       ns1:preamble="/home/brage/.config/inkscape/extensions/circuitSymbols/circuitSymbolsPreamble.tex"
       ns1:scale="1.0"
       ns1:alignment="middle center"
       ns1:stroke-to-path="0"
       ns1:inkscapeversion="1.0.1"
       ns1:jacobian_sqrt="1.33333"
       id="g254"
       style="fill:#ffffff;fill-opacity:1">
      <defs
         id="id-282d1850-f65a-49ea-bc43-0667e07a7572" />
      <g
         fill="#000000"
         fill-opacity="1"
         id="id-5c52a930-4f2b-4dd2-ba9f-935c87c08150"
         transform="translate(-149.275,-127.953)"
         style="fill:#ffffff;fill-opacity:1">
        <g
           transform="translate(148.712,134.765)"
           id="g251"
           style="fill:#ffffff;fill-opacity:1">
          <path
             d="m -50.6827,-58.48726 c 0.484375,-0.78125 0.90625,-0.8125 1.265625,-0.828125 0.125,-0.01563 0.140625,-0.171875 0.140625,-0.1875 0,-0.07813 -0.0625,-0.125 -0.140625,-0.125 -0.25,0 -0.546875,0.03125 -0.8125,0.03125 -0.328125,0 -0.671875,-0.03125 -0.984375,-0.03125 -0.0625,0 -0.1875,0 -0.1875,0.1875 0,0.109375 0.07813,0.125 0.15625,0.125 0.265625,0.01563 0.453125,0.125 0.453125,0.328125 0,0.15625 -0.140625,0.375 -0.140625,0.375 l -3.0625,4.875 -0.6875,-5.28125 c 0,-0.171875 0.234375,-0.296875 0.6875,-0.296875 0.140625,0 0.25,0 0.25,-0.203125 0,-0.07813 -0.07813,-0.109375 -0.125,-0.109375 -0.40625,0 -0.828125,0.03125 -1.25,0.03125 -0.171875,0 -0.359375,0 -0.546875,0 -0.171875,0 -0.359375,-0.03125 -0.53125,-0.03125 -0.07813,0 -0.1875,0 -0.1875,0.1875 0,0.125 0.07813,0.125 0.25,0.125 0.546875,0 0.5625,0.09375 0.59375,0.34375 l 0.78125,6.140625 c 0.03125,0.203125 0.07813,0.234375 0.203125,0.234375 0.15625,0 0.203125,-0.04687 0.28125,-0.171875 z m 0,0"
             id="id-a28db379-960b-484f-96d4-0c32d2b69a22"
             style="fill:#ffffff;fill-opacity:1" />
        </g>
      </g>
    </g>
  </g>
  <g
     id="g714"
     transform="translate(-90.232373,-129.48298)"
     style="stroke:#ffffff;stroke-width:0.529167;stroke-dasharray:none;stroke-opacity:1">
    <path
       style="fill:none;fill-opacity:1;stroke:#ffffff;stroke-width:0.529167;stroke-linecap:round;stroke-linejoin:round;stroke-dasharray:none;stroke-opacity:1"
       d="m 105,140 h 15.5 l 2,3 3,-6 3,6 3,-6 3,6 3,-6 2,3 H 155"
       id="path712" />
  </g>
  <g
     id="g727"
     transform="matrix(0.64000114,0,0,0.64000114,-215.83601,-356.55862)">
    <g
       transform="matrix(1.33333,0,0,1.33333,458.28987,602.05382)"
       ns1:version="1.8.2"
       ns1:texconverter="pdflatex"
       ns1:pdfconverter="inkscape"
       ns1:text=" $R$"
       ns1:preamble="/home/brage/.config/inkscape/extensions/circuitSymbols/circuitSymbolsPreamble.tex"
       ns1:scale="1.0"
       ns1:alignment="middle center"
       ns1:stroke-to-path="0"
       ns1:inkscapeversion="1.0.1"
       ns1:jacobian_sqrt="1.33333"
       id="g725">
      <defs
         id="id-e1fcf97f-ea33-45e4-8676-8c37919ed4b3" />
      <g
         fill="#000000"
         fill-opacity="1"
         id="id-e3a4eeb4-6fb3-47f1-b277-1f027743c231"
         transform="translate(-149.118,-127.953)">
        <g
           transform="translate(148.712,134.765)"
           id="g722">
          <path
             d="m -43.405524,-39.823559 c 0.0625,-0.234375 0.09375,-0.328125 0.28125,-0.359375 0.09375,-0.01563 0.40625,-0.01563 0.609375,-0.01563 0.703125,0 1.8125,0 1.8125,0.984375 0,0.34375 -0.15625,1.03125 -0.546875,1.421875 -0.265625,0.25 -0.78125,0.578125 -1.6875,0.578125 h -1.109375 z m 1.4375,2.734375 c 1.015625,-0.21875 2.1875,-0.921875 2.1875,-1.921875 0,-0.859375 -0.890625,-1.5 -2.203125,-1.5 h -2.828125 c -0.203125,0 -0.296875,0 -0.296875,0.203125 0,0.109375 0.09375,0.109375 0.28125,0.109375 0.01563,0 0.203125,0 0.375,0.01563 0.1875,0.03125 0.265625,0.03125 0.265625,0.171875 0,0.03125 0,0.0625 -0.03125,0.1875 l -1.34375,5.34375 c -0.09375,0.390625 -0.109375,0.46875 -0.90625,0.46875 -0.171875,0 -0.265625,0 -0.265625,0.203125 0,0.109375 0.125,0.109375 0.140625,0.109375 0.28125,0 0.984375,-0.03125 1.25,-0.03125 0.28125,0 1,0.03125 1.28125,0.03125 0.07813,0 0.1875,0 0.1875,-0.203125 0,-0.109375 -0.07813,-0.109375 -0.28125,-0.109375 -0.359375,0 -0.640625,0 -0.640625,-0.171875 0,-0.0625 0.01563,-0.109375 0.03125,-0.171875 l 0.65625,-2.640625 h 1.1875 c 0.90625,0 1.078125,0.5625 1.078125,0.90625 0,0.140625 -0.07813,0.453125 -0.140625,0.6875 -0.0625,0.28125 -0.15625,0.640625 -0.15625,0.84375 0,1.078125 1.203125,1.078125 1.328125,1.078125 0.84375,0 1.203125,-1 1.203125,-1.140625 0,-0.125 -0.109375,-0.125 -0.125,-0.125 -0.09375,0 -0.109375,0.0625 -0.125,0.140625 -0.25,0.734375 -0.6875,0.90625 -0.90625,0.90625 -0.328125,0 -0.40625,-0.21875 -0.40625,-0.609375 0,-0.3125 0.0625,-0.8125 0.109375,-1.140625 0.01563,-0.140625 0.03125,-0.328125 0.03125,-0.46875 0,-0.765625 -0.671875,-1.078125 -0.9375,-1.171875 z m 0,0"
             id="id-ffc87f5a-b128-4667-b1cc-e365167ffae2"
             style="fill:#ffffff;fill-opacity:1" />
        </g>
      </g>
    </g>
  </g>
  <g
     id="g933"
     transform="translate(-90.232372,-79.482991)"
     style="stroke:#ffffff;stroke-width:0.529167;stroke-dasharray:none;stroke-opacity:1">
    <path
       style="fill:none;fill-opacity:1;stroke:#ffffff;stroke-width:0.529167;stroke-linecap:round;stroke-linejoin:round;stroke-dasharray:none;stroke-opacity:1"
       d="m 132,140 h 23"
       id="path925" />
    <path
       style="fill:none;fill-opacity:1;stroke:#ffffff;stroke-width:0.529167;stroke-linecap:round;stroke-linejoin:round;stroke-dasharray:none;stroke-opacity:1"
       d="M 132,147 V 133"
       id="path927" />
    <path
       style="fill:none;fill-opacity:1;stroke:#ffffff;stroke-width:0.529167;stroke-linecap:round;stroke-linejoin:round;stroke-dasharray:none;stroke-opacity:1"
       d="M 128,140 H 105"
       id="path929" />
    <path
       style="fill:none;fill-opacity:1;stroke:#ffffff;stroke-width:0.529167;stroke-linecap:round;stroke-linejoin:round;stroke-dasharray:none;stroke-opacity:1"
       d="M 128,147 V 133"
       id="path931" />
  </g>
  <g
     id="g946"
     transform="matrix(0.62069121,0,0,0.62069121,-208.21761,-303.98862)">
    <g
       transform="matrix(1.33333,0,0,1.33333,395.69995,603.02338)"
       ns1:version="1.8.2"
       ns1:texconverter="pdflatex"
       ns1:pdfconverter="inkscape"
       ns1:text=" $C$"
       ns1:preamble="/home/brage/.config/inkscape/extensions/circuitSymbols/circuitSymbolsPreamble.tex"
       ns1:scale="1.0"
       ns1:alignment="middle center"
       ns1:stroke-to-path="0"
       ns1:inkscapeversion="1.0.1"
       ns1:jacobian_sqrt="1.33333"
       id="g944"
       style="fill:#ffffff;fill-opacity:1">
      <defs
         id="id-a1176b6d-379c-4d1e-b605-3386fa9b1116" />
      <g
         fill="#000000"
         fill-opacity="1"
         id="id-38da77c6-c006-4cbe-9c48-64c752555935"
         transform="translate(-149.212,-127.734)"
         style="fill:#ffffff;fill-opacity:1">
        <g
           transform="translate(148.712,134.765)"
           id="g941"
           style="fill:#ffffff;fill-opacity:1">
          <path
             d="m 7.578125,-6.921875 c 0,-0.03125 -0.015625,-0.109375 -0.109375,-0.109375 -0.03125,0 -0.046875,0.015625 -0.15625,0.125 L 6.625,-6.140625 C 6.53125,-6.28125 6.078125,-7.03125 4.96875,-7.03125 2.734375,-7.03125 0.5,-4.828125 0.5,-2.515625 0.5,-0.875 1.671875,0.21875 3.203125,0.21875 c 0.859375,0 1.625,-0.390625 2.15625,-0.859375 0.921875,-0.8125 1.09375,-1.71875 1.09375,-1.75 C 6.453125,-2.5 6.34375,-2.5 6.328125,-2.5 c -0.0625,0 -0.109375,0.03125 -0.125,0.109375 -0.09375,0.28125 -0.328125,1 -1.015625,1.578125 -0.6875,0.546875 -1.3125,0.71875 -1.828125,0.71875 -0.890625,0 -1.953125,-0.515625 -1.953125,-2.0625 0,-0.578125 0.203125,-2.1875 1.203125,-3.359375 0.609375,-0.703125 1.546875,-1.203125 2.4375,-1.203125 1.015625,0 1.609375,0.765625 1.609375,1.921875 0,0.40625 -0.03125,0.40625 -0.03125,0.515625 0,0.09375 0.109375,0.09375 0.140625,0.09375 0.125,0 0.125,-0.015625 0.1875,-0.203125 z m 0,0"
             id="id-58599665-d842-40a2-9f1f-1f11269eeeb3"
             style="fill:#ffffff;fill-opacity:1" />
        </g>
      </g>
    </g>
  </g>
  <path
     style="fill:#575757;fill-rule:evenodd;stroke:#ffffff;stroke-width:0.529167;stroke-linecap:round;stroke-linejoin:bevel;stroke-dasharray:none;stroke-opacity:1"
     d="m 64.767624,10.517007 v 50"
     id="path1030" />
  <path
     style="fill:none;fill-rule:evenodd;stroke:#ffffff;stroke-width:0.529167;stroke-linecap:round;stroke-linejoin:bevel;stroke-dasharray:none;stroke-opacity:1"
     d="m 64.767624,10.517007 v 50"
     id="path1034" />
</svg>
