<?xml version="1.0" encoding="UTF-8" standalone="no"?>
<!-- Created with Inkscape (http://www.inkscape.org/) -->

<svg
   width="90.483475mm"
   height="76.302483mm"
   viewBox="0 0 90.483477 76.302483"
   version="1.1"
   id="svg5"
   sodipodi:docname="RC.svg"
   inkscape:version="1.2.2 (b0a8486541, 2022-12-01)"
   xmlns:inkscape="http://www.inkscape.org/namespaces/inkscape"
   xmlns:sodipodi="http://sodipodi.sourceforge.net/DTD/sodipodi-0.dtd"
   xmlns="http://www.w3.org/2000/svg"
   xmlns:svg="http://www.w3.org/2000/svg"
   xmlns:ns1="http://www.iki.fi/pav/software/textext/">
  <sodipodi:namedview
     id="namedview38"
     pagecolor="#505050"
     bordercolor="#ffffff"
     borderopacity="1"
     inkscape:showpageshadow="0"
     inkscape:pageopacity="0"
     inkscape:pagecheckerboard="1"
     inkscape:deskcolor="#505050"
     inkscape:document-units="mm"
     showgrid="false"
     inkscape:zoom="2.3719592"
     inkscape:cx="83.686093"
     inkscape:cy="118.67826"
     inkscape:window-width="2560"
     inkscape:window-height="1440"
     inkscape:window-x="0"
     inkscape:window-y="0"
     inkscape:window-maximized="1"
     inkscape:current-layer="svg5" />
  <defs
     id="defs2" />
  <g
     id="g243"
     transform="rotate(-90,5.1423157,140.3747)"
     style="stroke:#ffffff;stroke-width:0.529167;stroke-dasharray:none;stroke-opacity:1">
    <path
       style="fill:none;fill-opacity:1;stroke:#ffffff;stroke-width:0.529167;stroke-linecap:round;stroke-linejoin:round;stroke-dasharray:none;stroke-opacity:1"
       d="M 103,150 H 85"
       id="path231" />
    <path
       style="fill:none;fill-opacity:1;stroke:#ffffff;stroke-width:0.529167;stroke-linecap:round;stroke-linejoin:round;stroke-dasharray:none;stroke-opacity:1"
       d="m 117,150 h 18"
       id="path233" />
    <circle
       style="fill:none;fill-opacity:1;stroke:#ffffff;stroke-width:0.529167;stroke-linecap:round;stroke-linejoin:round;stroke-dasharray:none;stroke-opacity:1"
       id="path235"
       cx="110"
       cy="150"
       r="7" />
    <path
       style="fill:none;fill-opacity:1;stroke:#ffffff;stroke-width:0.529167;stroke-linecap:round;stroke-linejoin:round;stroke-dasharray:none;stroke-opacity:1"
       d="m 113,150 h 2"
       id="path237" />
    <path
       style="fill:none;fill-opacity:1;stroke:#ffffff;stroke-width:0.529167;stroke-linecap:round;stroke-linejoin:round;stroke-dasharray:none;stroke-opacity:1"
       d="m 114,149 v 2"
       id="path239" />
    <path
       style="fill:none;fill-opacity:1;stroke:#ffffff;stroke-width:0.529167;stroke-linecap:round;stroke-linejoin:round;stroke-dasharray:none;stroke-opacity:1"
       d="m 106,149 v 2"
       id="path241" />
  </g>
  <g
     id="g256"
     transform="matrix(0.6400016,0,0,0.6400016,-197.58268,-339.48634)">
    <g
       transform="matrix(1.33333,0,0,1.33333,384.65375,652.30054)"
       ns1:version="1.8.2"
       ns1:texconverter="pdflatex"
       ns1:pdfconverter="inkscape"
       ns1:text=" $V$"
       ns1:preamble="/home/brage/.config/inkscape/extensions/circuitSymbols/circuitSymbolsPreamble.tex"
       ns1:scale="1.0"
       ns1:alignment="middle center"
       ns1:stroke-to-path="0"
       ns1:inkscapeversion="1.0.1"
       ns1:jacobian_sqrt="1.33333"
       id="g254"
       style="fill:#ffffff;fill-opacity:1">
      <defs
         id="id-282d1850-f65a-49ea-bc43-0667e07a7572" />
      <g
         fill="#000000"
         fill-opacity="1"
         id="id-5c52a930-4f2b-4dd2-ba9f-935c87c08150"
         transform="translate(-149.275,-127.953)"
         style="fill:#ffffff;fill-opacity:1">
        <g
           transform="translate(148.712,134.765)"
           id="g251"
           style="fill:#ffffff;fill-opacity:1">
          <path
             d="m -50.6827,-58.48726 c 0.484375,-0.78125 0.90625,-0.8125 1.265625,-0.828125 0.125,-0.01563 0.140625,-0.171875 0.140625,-0.1875 0,-0.07813 -0.0625,-0.125 -0.140625,-0.125 -0.25,0 -0.546875,0.03125 -0.8125,0.03125 -0.328125,0 -0.671875,-0.03125 -0.984375,-0.03125 -0.0625,0 -0.1875,0 -0.1875,0.1875 0,0.109375 0.07813,0.125 0.15625,0.125 0.265625,0.01563 0.453125,0.125 0.453125,0.328125 0,0.15625 -0.140625,0.375 -0.140625,0.375 l -3.0625,4.875 -0.6875,-5.28125 c 0,-0.171875 0.234375,-0.296875 0.6875,-0.296875 0.140625,0 0.25,0 0.25,-0.203125 0,-0.07813 -0.07813,-0.109375 -0.125,-0.109375 -0.40625,0 -0.828125,0.03125 -1.25,0.03125 -0.171875,0 -0.359375,0 -0.546875,0 -0.171875,0 -0.359375,-0.03125 -0.53125,-0.03125 -0.07813,0 -0.1875,0 -0.1875,0.1875 0,0.125 0.07813,0.125 0.25,0.125 0.546875,0 0.5625,0.09375 0.59375,0.34375 l 0.78125,6.140625 c 0.03125,0.203125 0.07813,0.234375 0.203125,0.234375 0.15625,0 0.203125,-0.04687 0.28125,-0.171875 z m 0,0"
             id="id-a28db379-960b-484f-96d4-0c32d2b69a22"
             style="fill:#ffffff;fill-opacity:1" />
        </g>
      </g>
    </g>
  </g>
  <g
     id="g714"
     transform="translate(-90.232378,-129.48298)"
     style="stroke:#ffffff;stroke-width:0.529167;stroke-dasharray:none;stroke-opacity:1">
    <path
       style="fill:none;fill-opacity:1;stroke:#ffffff;stroke-width:0.529167;stroke-linecap:round;stroke-linejoin:round;stroke-dasharray:none;stroke-opacity:1"
       d="m 105,140 h 15.5 l 2,3 3,-6 3,6 3,-6 3,6 3,-6 2,3 H 155"
       id="path712" />
  </g>
  <g
     id="g727"
     transform="matrix(0.64000114,0,0,0.64000114,-215.83601,-356.55862)">
    <g
       transform="matrix(1.33333,0,0,1.33333,458.28987,602.05382)"
       ns1:version="1.8.2"
       ns1:texconverter="pdflatex"
       ns1:pdfconverter="inkscape"
       ns1:text=" $R$"
       ns1:preamble="/home/brage/.config/inkscape/extensions/circuitSymbols/circuitSymbolsPreamble.tex"
       ns1:scale="1.0"
       ns1:alignment="middle center"
       ns1:stroke-to-path="0"
       ns1:inkscapeversion="1.0.1"
       ns1:jacobian_sqrt="1.33333"
       id="g725">
      <defs
         id="id-e1fcf97f-ea33-45e4-8676-8c37919ed4b3" />
      <g
         fill="#000000"
         fill-opacity="1"
         id="id-e3a4eeb4-6fb3-47f1-b277-1f027743c231"
         transform="translate(-149.118,-127.953)">
        <g
           transform="translate(148.712,134.765)"
           id="g722">
          <path
             d="m -43.405524,-39.823559 c 0.0625,-0.234375 0.09375,-0.328125 0.28125,-0.359375 0.09375,-0.01563 0.40625,-0.01563 0.609375,-0.01563 0.703125,0 1.8125,0 1.8125,0.984375 0,0.34375 -0.15625,1.03125 -0.546875,1.421875 -0.265625,0.25 -0.78125,0.578125 -1.6875,0.578125 h -1.109375 z m 1.4375,2.734375 c 1.015625,-0.21875 2.1875,-0.921875 2.1875,-1.921875 0,-0.859375 -0.890625,-1.5 -2.203125,-1.5 h -2.828125 c -0.203125,0 -0.296875,0 -0.296875,0.203125 0,0.109375 0.09375,0.109375 0.28125,0.109375 0.01563,0 0.203125,0 0.375,0.01563 0.1875,0.03125 0.265625,0.03125 0.265625,0.171875 0,0.03125 0,0.0625 -0.03125,0.1875 l -1.34375,5.34375 c -0.09375,0.390625 -0.109375,0.46875 -0.90625,0.46875 -0.171875,0 -0.265625,0 -0.265625,0.203125 0,0.109375 0.125,0.109375 0.140625,0.109375 0.28125,0 0.984375,-0.03125 1.25,-0.03125 0.28125,0 1,0.03125 1.28125,0.03125 0.07813,0 0.1875,0 0.1875,-0.203125 0,-0.109375 -0.07813,-0.109375 -0.28125,-0.109375 -0.359375,0 -0.640625,0 -0.640625,-0.171875 0,-0.0625 0.01563,-0.109375 0.03125,-0.171875 l 0.65625,-2.640625 h 1.1875 c 0.90625,0 1.078125,0.5625 1.078125,0.90625 0,0.140625 -0.07813,0.453125 -0.140625,0.6875 -0.0625,0.28125 -0.15625,0.640625 -0.15625,0.84375 0,1.078125 1.203125,1.078125 1.328125,1.078125 0.84375,0 1.203125,-1 1.203125,-1.140625 0,-0.125 -0.109375,-0.125 -0.125,-0.125 -0.09375,0 -0.109375,0.0625 -0.125,0.140625 -0.25,0.734375 -0.6875,0.90625 -0.90625,0.90625 -0.328125,0 -0.40625,-0.21875 -0.40625,-0.609375 0,-0.3125 0.0625,-0.8125 0.109375,-1.140625 0.01563,-0.140625 0.03125,-0.328125 0.03125,-0.46875 0,-0.765625 -0.671875,-1.078125 -0.9375,-1.171875 z m 0,0"
             id="id-ffc87f5a-b128-4667-b1cc-e365167ffae2"
             style="fill:#ffffff;fill-opacity:1" />
        </g>
      </g>
    </g>
  </g>
  <g
     id="g933"
     transform="translate(-90.232377,-79.482992)"
     style="stroke:#ffffff;stroke-width:0.529167;stroke-dasharray:none;stroke-opacity:1">
    <path
       style="fill:none;fill-opacity:1;stroke:#ffffff;stroke-width:0.529167;stroke-linecap:round;stroke-linejoin:round;stroke-dasharray:none;stroke-opacity:1"
       d="m 132,140 h 23"
       id="path925" />
    <path
       style="fill:none;fill-opacity:1;stroke:#ffffff;stroke-width:0.529167;stroke-linecap:round;stroke-linejoin:round;stroke-dasharray:none;stroke-opacity:1"
       d="M 132,147 V 133"
       id="path927" />
    <path
       style="fill:none;fill-opacity:1;stroke:#ffffff;stroke-width:0.529167;stroke-linecap:round;stroke-linejoin:round;stroke-dasharray:none;stroke-opacity:1"
       d="M 128,140 H 105"
       id="path929" />
    <path
       style="fill:none;fill-opacity:1;stroke:#ffffff;stroke-width:0.529167;stroke-linecap:round;stroke-linejoin:round;stroke-dasharray:none;stroke-opacity:1"
       d="M 128,147 V 133"
       id="path931" />
  </g>
  <g
     id="g946"
     transform="matrix(0.62069121,0,0,0.62069121,-208.21761,-303.98862)">
    <g
       transform="matrix(1.33333,0,0,1.33333,395.69995,603.02338)"
       ns1:version="1.8.2"
       ns1:texconverter="pdflatex"
       ns1:pdfconverter="inkscape"
       ns1:text=" $C$"
       ns1:preamble="/home/brage/.config/inkscape/extensions/circuitSymbols/circuitSymbolsPreamble.tex"
       ns1:scale="1.0"
       ns1:alignment="middle center"
       ns1:stroke-to-path="0"
       ns1:inkscapeversion="1.0.1"
       ns1:jacobian_sqrt="1.33333"
       id="g944"
       style="fill:#ffffff;fill-opacity:1">
      <defs
         id="id-a1176b6d-379c-4d1e-b605-3386fa9b1116" />
      <g
         fill="#000000"
         fill-opacity="1"
         id="id-38da77c6-c006-4cbe-9c48-64c752555935"
         transform="translate(-149.212,-127.734)"
         style="fill:#ffffff;fill-opacity:1">
        <g
           transform="translate(148.712,134.765)"
           id="g941"
           style="fill:#ffffff;fill-opacity:1">
          <path
             d="m 7.578125,-6.921875 c 0,-0.03125 -0.015625,-0.109375 -0.109375,-0.109375 -0.03125,0 -0.046875,0.015625 -0.15625,0.125 L 6.625,-6.140625 C 6.53125,-6.28125 6.078125,-7.03125 4.96875,-7.03125 2.734375,-7.03125 0.5,-4.828125 0.5,-2.515625 0.5,-0.875 1.671875,0.21875 3.203125,0.21875 c 0.859375,0 1.625,-0.390625 2.15625,-0.859375 0.921875,-0.8125 1.09375,-1.71875 1.09375,-1.75 C 6.453125,-2.5 6.34375,-2.5 6.328125,-2.5 c -0.0625,0 -0.109375,0.03125 -0.125,0.109375 -0.09375,0.28125 -0.328125,1 -1.015625,1.578125 -0.6875,0.546875 -1.3125,0.71875 -1.828125,0.71875 -0.890625,0 -1.953125,-0.515625 -1.953125,-2.0625 0,-0.578125 0.203125,-2.1875 1.203125,-3.359375 0.609375,-0.703125 1.546875,-1.203125 2.4375,-1.203125 1.015625,0 1.609375,0.765625 1.609375,1.921875 0,0.40625 -0.03125,0.40625 -0.03125,0.515625 0,0.09375 0.109375,0.09375 0.140625,0.09375 0.125,0 0.125,-0.015625 0.1875,-0.203125 z m 0,0"
             id="id-58599665-d842-40a2-9f1f-1f11269eeeb3"
             style="fill:#ffffff;fill-opacity:1" />
        </g>
      </g>
    </g>
  </g>
  <path
     style="fill:#575757;fill-rule:evenodd;stroke:#ffffff;stroke-width:0.529167;stroke-linecap:round;stroke-linejoin:bevel;stroke-dasharray:none;stroke-opacity:1"
     d="m 64.767619,10.517006 v 50"
     id="path1030" />
  <path
     style="fill:none;fill-rule:evenodd;stroke:#ffffff;stroke-width:0.529167;stroke-linecap:round;stroke-linejoin:bevel;stroke-dasharray:none;stroke-opacity:1"
     d="m 64.767619,10.517006 v 50"
     id="path1034" />
  <path
     style="fill:none;stroke:#ffffff;stroke-width:0.499999;stroke-linecap:round;stroke-linejoin:bevel;stroke-dasharray:none;stroke-opacity:1"
     d="m 64.767618,35.517006 c 12.179753,0 12.179753,0 12.179753,0"
     id="path330" />
  <g
     transform="matrix(0.71693153,0,0,0.71693153,78.630718,33.464629)"
     ns1:version="1.8.2"
     ns1:texconverter="pdflatex"
     ns1:pdfconverter="inkscape"
     ns1:text="$V_{out}$"
     ns1:preamble="/home/brage/.config/inkscape/extensions/inkscapeMadeEasy/basicLatexPackages.tex"
     ns1:scale="1.0"
     ns1:alignment="middle center"
     ns1:stroke-to-path="0"
     ns1:jacobian_sqrt="0.352778"
     id="g2283"
     style="fill:#ffffff;fill-opacity:1;stroke-width:0.999259;stroke-dasharray:none">
    <defs
       id="id-a45f78a0-c4fe-4dde-bfcf-3d2304dfa837">
      <g
         id="id-b754c9f0-8795-4cc6-859d-4034e6690f5b">
        <g
           id="id-d154ff72-5d6e-4b47-aea4-51a2ac7d3520" />
        <g
           id="id-d711f4a6-d6b4-468d-837f-0566884ac9e3">
          <path
             d="M 6.265625,-5.671875 C 6.75,-6.453125 7.171875,-6.484375 7.53125,-6.5 c 0.125,-0.015625 0.140625,-0.171875 0.140625,-0.1875 0,-0.078125 -0.0625,-0.125 -0.140625,-0.125 -0.25,0 -0.546875,0.03125 -0.8125,0.03125 -0.328125,0 -0.671875,-0.03125 -0.984375,-0.03125 -0.0625,0 -0.1875,0 -0.1875,0.1875 0,0.109375 0.078125,0.125 0.15625,0.125 0.265625,0.015625 0.453125,0.125 0.453125,0.328125 0,0.15625 -0.140625,0.375 -0.140625,0.375 l -3.0625,4.875 -0.6875,-5.28125 C 2.265625,-6.375 2.5,-6.5 2.953125,-6.5 c 0.140625,0 0.25,0 0.25,-0.203125 0,-0.078125 -0.078125,-0.109375 -0.125,-0.109375 -0.40625,0 -0.828125,0.03125 -1.25,0.03125 -0.171875,0 -0.359375,0 -0.546875,0 -0.171875,0 -0.359375,-0.03125 -0.53125,-0.03125 -0.078125,0 -0.1875,0 -0.1875,0.1875 0,0.125 0.078125,0.125 0.25,0.125 0.546875,0 0.5625,0.09375 0.59375,0.34375 L 2.1875,-0.015625 C 2.21875,0.1875 2.265625,0.21875 2.390625,0.21875 c 0.15625,0 0.203125,-0.046875 0.28125,-0.171875 z m 0,0"
             id="id-df94f811-d5d1-402b-a319-66f63519daad" />
        </g>
        <g
           id="id-04fde5cb-6a0a-41a4-917e-739c36cc91be" />
        <g
           id="id-95a45922-ea97-4646-a78e-23f1ef1725e4">
          <path
             d="m 3.703125,-1.859375 c 0,-0.765625 -0.578125,-1.21875 -1.265625,-1.21875 -1.03125,0 -2,0.96875 -2,1.921875 0,0.703125 0.5,1.21875 1.265625,1.21875 1,0 2,-0.90625 2,-1.921875 z m -2,1.734375 c -0.34375,0 -0.6875,-0.21875 -0.6875,-0.78125 0,-0.28125 0.125,-0.96875 0.40625,-1.359375 C 1.71875,-2.703125 2.125,-2.875 2.4375,-2.875 c 0.375,0 0.6875,0.25 0.6875,0.765625 C 3.125,-1.9375 3.046875,-1.25 2.734375,-0.765625 2.46875,-0.34375 2.0625,-0.125 1.703125,-0.125 Z m 0,0"
             id="id-f4d2b8d6-e476-466c-b505-d8a5c656a4a4" />
        </g>
        <g
           id="id-8f1f7b4b-0e23-4951-abe1-e2165a923113">
          <path
             d="M 2.953125,-1.125 C 2.90625,-0.984375 2.84375,-0.71875 2.84375,-0.71875 2.703125,-0.5 2.421875,-0.125 2,-0.125 c -0.484375,0 -0.484375,-0.453125 -0.484375,-0.578125 0,-0.40625 0.1875,-0.90625 0.390625,-1.421875 C 1.953125,-2.265625 2,-2.359375 2,-2.46875 2,-2.84375 1.6875,-3.078125 1.34375,-3.078125 0.640625,-3.078125 0.328125,-2.125 0.328125,-2 c 0,0.078125 0.09375,0.078125 0.125,0.078125 0.09375,0 0.09375,-0.03125 0.125,-0.109375 0.15625,-0.5625 0.46875,-0.84375 0.734375,-0.84375 0.125,0 0.171875,0.078125 0.171875,0.234375 0,0.171875 -0.046875,0.3125 -0.125,0.46875 -0.375,0.96875 -0.375,1.171875 -0.375,1.359375 0,0.109375 0,0.4375 0.265625,0.65625 0.203125,0.171875 0.46875,0.21875 0.71875,0.21875 0.4375,0 0.671875,-0.234375 0.90625,-0.453125 C 3.03125,0.0625 3.484375,0.0625 3.578125,0.0625 3.8125,0.0625 4,-0.0625 4.125,-0.296875 4.28125,-0.578125 4.375,-0.96875 4.375,-1 c 0,-0.09375 -0.09375,-0.09375 -0.109375,-0.09375 -0.109375,0 -0.109375,0.03125 -0.15625,0.21875 -0.09375,0.328125 -0.21875,0.75 -0.515625,0.75 -0.171875,0 -0.234375,-0.15625 -0.234375,-0.34375 0,-0.109375 0.0625,-0.375 0.109375,-0.546875 0.046875,-0.1875 0.125,-0.46875 0.15625,-0.625 l 0.15625,-0.625 C 3.828125,-2.4375 3.90625,-2.75 3.90625,-2.78125 3.90625,-2.921875 3.796875,-3 3.671875,-3 c -0.25,0 -0.3125,0.203125 -0.359375,0.421875 z m 0,0"
             id="id-f461861d-ce30-472e-b8ca-306543d94840" />
        </g>
        <g
           id="id-50ec4ff2-2a14-465a-9865-da9b790e5474">
          <path
             d="m 1.71875,-2.75 h 0.703125 c 0.140625,0 0.21875,0 0.21875,-0.15625 C 2.640625,-3 2.5625,-3 2.4375,-3 H 1.78125 l 0.25,-1.03125 C 2.046875,-4.0625 2.0625,-4.109375 2.0625,-4.125 c 0,-0.140625 -0.109375,-0.234375 -0.25,-0.234375 -0.171875,0 -0.265625,0.125 -0.328125,0.296875 C 1.4375,-3.875 1.53125,-4.21875 1.21875,-3 H 0.515625 c -0.125,0 -0.21875,0 -0.21875,0.15625 C 0.296875,-2.75 0.375,-2.75 0.5,-2.75 H 1.15625 L 0.75,-1.109375 C 0.703125,-0.9375 0.640625,-0.6875 0.640625,-0.59375 c 0,0.40625 0.359375,0.65625 0.75,0.65625 0.78125,0 1.21875,-0.96875 1.21875,-1.0625 0,-0.09375 -0.09375,-0.09375 -0.109375,-0.09375 -0.09375,0 -0.09375,0.015625 -0.15625,0.140625 -0.1875,0.4375 -0.546875,0.828125 -0.921875,0.828125 -0.15625,0 -0.25,-0.09375 -0.25,-0.34375 0,-0.0625 0.03125,-0.21875 0.046875,-0.28125 z m 0,0"
             id="id-c46fa445-a8f1-408d-b851-a544693b7442" />
        </g>
      </g>
    </defs>
    <g
       fill="#000000"
       fill-opacity="1"
       id="id-80d8579a-7c0d-4030-a7bf-d4dafa2bdf36"
       transform="translate(-149.275,-127.953)"
       style="fill:#ffffff;fill-opacity:1;stroke-width:0.999259;stroke-dasharray:none">
      <g
         transform="translate(148.712,134.765)"
         id="g2270"
         style="fill:#ffffff;fill-opacity:1;stroke-width:0.999259;stroke-dasharray:none">
        <path
           d="M 6.265625,-5.671875 C 6.75,-6.453125 7.171875,-6.484375 7.53125,-6.5 c 0.125,-0.015625 0.140625,-0.171875 0.140625,-0.1875 0,-0.078125 -0.0625,-0.125 -0.140625,-0.125 -0.25,0 -0.546875,0.03125 -0.8125,0.03125 -0.328125,0 -0.671875,-0.03125 -0.984375,-0.03125 -0.0625,0 -0.1875,0 -0.1875,0.1875 0,0.109375 0.078125,0.125 0.15625,0.125 0.265625,0.015625 0.453125,0.125 0.453125,0.328125 0,0.15625 -0.140625,0.375 -0.140625,0.375 l -3.0625,4.875 -0.6875,-5.28125 C 2.265625,-6.375 2.5,-6.5 2.953125,-6.5 c 0.140625,0 0.25,0 0.25,-0.203125 0,-0.078125 -0.078125,-0.109375 -0.125,-0.109375 -0.40625,0 -0.828125,0.03125 -1.25,0.03125 -0.171875,0 -0.359375,0 -0.546875,0 -0.171875,0 -0.359375,-0.03125 -0.53125,-0.03125 -0.078125,0 -0.1875,0 -0.1875,0.1875 0,0.125 0.078125,0.125 0.25,0.125 0.546875,0 0.5625,0.09375 0.59375,0.34375 L 2.1875,-0.015625 C 2.21875,0.1875 2.265625,0.21875 2.390625,0.21875 c 0.15625,0 0.203125,-0.046875 0.28125,-0.171875 z m 0,0"
           id="id-ee33028c-0b33-4dfb-a8e8-54f8bb944b33"
           style="fill:#ffffff;fill-opacity:1;stroke-width:0.999259;stroke-dasharray:none" />
      </g>
    </g>
    <g
       fill="#000000"
       fill-opacity="1"
       id="id-9cb92d24-3697-4e83-ad2b-5972d59bdaa0"
       transform="translate(-149.275,-127.953)"
       style="fill:#ffffff;fill-opacity:1;stroke-width:0.999259;stroke-dasharray:none">
      <g
         transform="translate(154.524,136.259)"
         id="g2274"
         style="fill:#ffffff;fill-opacity:1;stroke-width:0.999259;stroke-dasharray:none">
        <path
           d="m 3.703125,-1.859375 c 0,-0.765625 -0.578125,-1.21875 -1.265625,-1.21875 -1.03125,0 -2,0.96875 -2,1.921875 0,0.703125 0.5,1.21875 1.265625,1.21875 1,0 2,-0.90625 2,-1.921875 z m -2,1.734375 c -0.34375,0 -0.6875,-0.21875 -0.6875,-0.78125 0,-0.28125 0.125,-0.96875 0.40625,-1.359375 C 1.71875,-2.703125 2.125,-2.875 2.4375,-2.875 c 0.375,0 0.6875,0.25 0.6875,0.765625 C 3.125,-1.9375 3.046875,-1.25 2.734375,-0.765625 2.46875,-0.34375 2.0625,-0.125 1.703125,-0.125 Z m 0,0"
           id="id-0c18da3b-376d-4569-adae-8fb8a1a56fae"
           style="fill:#ffffff;fill-opacity:1;stroke-width:0.999259;stroke-dasharray:none" />
      </g>
      <g
         transform="translate(158.457,136.259)"
         id="g2277"
         style="fill:#ffffff;fill-opacity:1;stroke-width:0.999259;stroke-dasharray:none">
        <path
           d="M 2.953125,-1.125 C 2.90625,-0.984375 2.84375,-0.71875 2.84375,-0.71875 2.703125,-0.5 2.421875,-0.125 2,-0.125 c -0.484375,0 -0.484375,-0.453125 -0.484375,-0.578125 0,-0.40625 0.1875,-0.90625 0.390625,-1.421875 C 1.953125,-2.265625 2,-2.359375 2,-2.46875 2,-2.84375 1.6875,-3.078125 1.34375,-3.078125 0.640625,-3.078125 0.328125,-2.125 0.328125,-2 c 0,0.078125 0.09375,0.078125 0.125,0.078125 0.09375,0 0.09375,-0.03125 0.125,-0.109375 0.15625,-0.5625 0.46875,-0.84375 0.734375,-0.84375 0.125,0 0.171875,0.078125 0.171875,0.234375 0,0.171875 -0.046875,0.3125 -0.125,0.46875 -0.375,0.96875 -0.375,1.171875 -0.375,1.359375 0,0.109375 0,0.4375 0.265625,0.65625 0.203125,0.171875 0.46875,0.21875 0.71875,0.21875 0.4375,0 0.671875,-0.234375 0.90625,-0.453125 C 3.03125,0.0625 3.484375,0.0625 3.578125,0.0625 3.8125,0.0625 4,-0.0625 4.125,-0.296875 4.28125,-0.578125 4.375,-0.96875 4.375,-1 c 0,-0.09375 -0.09375,-0.09375 -0.109375,-0.09375 -0.109375,0 -0.109375,0.03125 -0.15625,0.21875 -0.09375,0.328125 -0.21875,0.75 -0.515625,0.75 -0.171875,0 -0.234375,-0.15625 -0.234375,-0.34375 0,-0.109375 0.0625,-0.375 0.109375,-0.546875 0.046875,-0.1875 0.125,-0.46875 0.15625,-0.625 l 0.15625,-0.625 C 3.828125,-2.4375 3.90625,-2.75 3.90625,-2.78125 3.90625,-2.921875 3.796875,-3 3.671875,-3 c -0.25,0 -0.3125,0.203125 -0.359375,0.421875 z m 0,0"
           id="id-cc09d430-363f-45fc-806e-cdcb11cf7ef2"
           style="fill:#ffffff;fill-opacity:1;stroke-width:0.999259;stroke-dasharray:none" />
      </g>
      <g
         transform="translate(163.167,136.259)"
         id="g2280"
         style="fill:#ffffff;fill-opacity:1;stroke-width:0.999259;stroke-dasharray:none">
        <path
           d="m 1.71875,-2.75 h 0.703125 c 0.140625,0 0.21875,0 0.21875,-0.15625 C 2.640625,-3 2.5625,-3 2.4375,-3 H 1.78125 l 0.25,-1.03125 C 2.046875,-4.0625 2.0625,-4.109375 2.0625,-4.125 c 0,-0.140625 -0.109375,-0.234375 -0.25,-0.234375 -0.171875,0 -0.265625,0.125 -0.328125,0.296875 C 1.4375,-3.875 1.53125,-4.21875 1.21875,-3 H 0.515625 c -0.125,0 -0.21875,0 -0.21875,0.15625 C 0.296875,-2.75 0.375,-2.75 0.5,-2.75 H 1.15625 L 0.75,-1.109375 C 0.703125,-0.9375 0.640625,-0.6875 0.640625,-0.59375 c 0,0.40625 0.359375,0.65625 0.75,0.65625 0.78125,0 1.21875,-0.96875 1.21875,-1.0625 0,-0.09375 -0.09375,-0.09375 -0.109375,-0.09375 -0.09375,0 -0.09375,0.015625 -0.15625,0.140625 -0.1875,0.4375 -0.546875,0.828125 -0.921875,0.828125 -0.15625,0 -0.25,-0.09375 -0.25,-0.34375 0,-0.0625 0.03125,-0.21875 0.046875,-0.28125 z m 0,0"
           id="id-f248fc25-5388-40c3-8ba2-2d913d976989"
           style="fill:#ffffff;fill-opacity:1;stroke-width:0.999259;stroke-dasharray:none" />
      </g>
    </g>
  </g>
</svg>
